<svg width="168" height="146" viewBox="0 0 168 146" fill="none" xmlns="http://www.w3.org/2000/svg">
<path d="M80.5367 4.52441C81.6914 2.52441 84.5781 2.52441 85.7328 4.52441L123.838 70.5244C124.993 72.5244 123.549 75.0244 121.24 75.0244H45.0296C42.7202 75.0244 41.2769 72.5244 42.4316 70.5244L80.5367 4.52441Z" fill="black"/>
<path d="M82.7463 81.3305L126.486 81.3304C127.178 81.3304 127.821 81.6885 128.186 82.277L143.845 107.549C144.671 108.881 143.713 110.602 142.145 110.602H24.1585C22.5839 110.602 21.6268 108.867 22.4669 107.535L38.4085 82.2634C38.7749 81.6827 39.4135 81.3304 40.1001 81.3304L82.7463 81.3305Z" fill="black"/>
<path d="M62.6467 116.257L148.386 116.257C149.079 116.257 149.722 116.616 150.086 117.204L165.746 142.476C166.571 143.808 165.613 145.529 164.046 145.529H4.0589C2.48428 145.529 1.52724 143.794 2.36734 142.462L18.3089 117.19C18.6753 116.61 19.3139 116.257 20.0005 116.257L62.6467 116.257Z" fill="black"/>
</svg>
